<svg width="16" height="17" viewBox="0 0 16 17" fill="none" xmlns="http://www.w3.org/2000/svg">
<path d="M8 0.609863C3.58854 0.609863 0 4.19841 0 8.60986C0 13.0213 3.58854 16.6099 8 16.6099C12.4115 16.6099 16 13.0213 16 8.60986C16 4.19841 12.4115 0.609863 8 0.609863ZM8 1.9432C11.6901 1.9432 14.6667 4.91976 14.6667 8.60986C14.6667 12.3 11.6901 15.2765 8 15.2765C4.3099 15.2765 1.33333 12.3 1.33333 8.60986C1.33333 4.91976 4.3099 1.9432 8 1.9432ZM5 5.9432C4.44792 5.9432 4 6.39111 4 6.9432C4 7.49528 4.44792 7.9432 5 7.9432C5.55208 7.9432 6 7.49528 6 6.9432C6 6.39111 5.55208 5.9432 5 5.9432ZM9.33333 6.60986V7.9432H12.6667V6.60986H9.33333ZM11.3125 9.29736C11.3125 10.4198 10.862 11.1984 10.2083 11.7557C9.55469 12.313 8.6901 12.6099 8 12.6099C6.58594 12.6099 5.625 12.0369 4.875 11.2974L3.9375 12.2557C4.86719 13.1698 6.21354 13.9432 8 13.9432C9.03646 13.9432 10.1745 13.5526 11.0833 12.7765C11.9922 12.0005 12.6458 10.8026 12.6458 9.29736H11.3125Z" fill="#5B39F4"/>
</svg>
